<svg style="position: absolute; width: 0; height: 0;" width="0" height="0" version="1.1" xmlns="http://www.w3.org/2000/svg" xmlns:xlink="http://www.w3.org/1999/xlink">
<defs>
<symbol id="icon-add" viewBox="0 0 1024 1024">
<title>add</title>
<path class="path1" d="M810 554h-256v256h-84v-256h-256v-84h256v-256h84v256h256v84z"></path>
</symbol>
<symbol id="icon-grid" viewBox="0 0 1024 1024">
<title>grid</title>
<path class="path1" d="M682 854v-172h172v172h-172zM682 598v-172h172v172h-172zM426 342v-172h172v172h-172zM682 170h172v172h-172v-172zM426 598v-172h172v172h-172zM170 598v-172h172v172h-172zM170 854v-172h172v172h-172zM426 854v-172h172v172h-172zM170 342v-172h172v172h-172z"></path>
</symbol>
<symbol id="icon-list" viewBox="0 0 1024 1024">
<title>view_headline</title>
<path class="path1" d="M170 214h684v84h-684v-84zM170 470v-86h684v86h-684zM170 810v-84h684v84h-684zM170 640v-86h684v86h-684z"></path>
</symbol>
<symbol id="icon-check" viewBox="0 0 1024 1024">
<title>check</title>
<path class="path1" d="M384 690l452-452 60 60-512 512-238-238 60-60z"></path>
</symbol>
<symbol id="icon-chevron-left" viewBox="0 0 1024 1024">
<title>navigate_before</title>
<path class="path1" d="M658 316l-196 196 196 196-60 60-256-256 256-256z"></path>
</symbol>
<symbol id="icon-chevron-right" viewBox="0 0 1024 1024">
<title>navigate_next</title>
<path class="path1" d="M426 256l256 256-256 256-60-60 196-196-196-196z"></path>
</symbol>
<symbol id="icon-chevron-down" viewBox="0 0 448 512">
<title>show_more</title>
<path d="M224 416c-8.188 0-16.38-3.125-22.62-9.375l-192-192c-12.5-12.5-12.5-32.75 0-45.25s32.75-12.5 45.25 0L224 338.8l169.4-169.4c12.5-12.5 32.75-12.5 45.25 0s12.5 32.75 0 45.25l-192 192C240.4 412.9 232.2 416 224 416z"/>
</symbol>
<symbol id="icon-arrow-down" width="24" height="24" viewBox="0 0 24 24">
	<title>arrow_down</title>
    <path fill="none" d="M0 0h24v24H0V0z"/>
    <path class="path1" d="M20 12l-1.41-1.41L13 16.17V4h-2v12.17l-5.58-5.59L4 12l8 8 8-8z"/>
</symbol>
<symbol id="icon-arrow-up" width="24" height="24" viewBox="0 0 24 24">
	<title>arrow_up</title>
    <path fill="none" d="M0 0h24v24H0V0z"/>
    <path class="path1" d="M4 12l1.41 1.41L11 7.83V20h2V7.83l5.58 5.59L20 12l-8-8-8 8z"/>
</symbol>
<symbol id="icon-close" viewBox="0 0 1024 1024">
<title>close</title>
<path class="path1" d="M810 274l-238 238 238 238-60 60-238-238-238 238-60-60 238-238-238-238 60-60 238 238 238-238z"></path>
</symbol>
<symbol id="icon-edit" viewBox="0 0 1024 1024">
<title>edit</title>
<path class="path1" d="M884 300l-78 78-160-160 78-78c16-16 44-16 60 0l100 100c16 16 16 44 0 60zM128 736l472-472 160 160-472 472h-160v-160z"></path>
</symbol>
<symbol id="icon-delete" viewBox="0 0 448 512">
<title>delete</title>
<path d="M135.2 17.69C140.6 6.848 151.7 0 163.8 0H284.2C296.3 0 307.4 6.848 312.8 17.69L320 32H416C433.7 32 448 46.33 448 64C448 81.67 433.7 96 416 96H32C14.33 96 0 81.67 0 64C0 46.33 14.33 32 32 32H128L135.2 17.69zM31.1 128H416V448C416 483.3 387.3 512 352 512H95.1C60.65 512 31.1 483.3 31.1 448V128zM111.1 208V432C111.1 440.8 119.2 448 127.1 448C136.8 448 143.1 440.8 143.1 432V208C143.1 199.2 136.8 192 127.1 192C119.2 192 111.1 199.2 111.1 208zM207.1 208V432C207.1 440.8 215.2 448 223.1 448C232.8 448 240 440.8 240 432V208C240 199.2 232.8 192 223.1 192C215.2 192 207.1 199.2 207.1 208zM304 208V432C304 440.8 311.2 448 320 448C328.8 448 336 440.8 336 432V208C336 199.2 328.8 192 320 192C311.2 192 304 199.2 304 208z"/>
</symbol>
<symbol id="icon-photo" viewBox="0 0 1024 1024">
<title>photo</title>
<path class="path1" d="M214 726h596l-192-256-148 192-108-128zM896 128c42 0 86 44 86 86v596c0 42-44 86-86 86h-768c-46 0-86-40-86-86v-596c0-42 44-86 86-86h768z"></path>
</symbol>
<symbol id="icon-search" viewBox="0 0 24 24">
<title>search</title>
<path class="path1" d="M9.516 14.016c2.484 0 4.5-2.016 4.5-4.5s-2.016-4.5-4.5-4.5-4.5 2.016-4.5 4.5 2.016 4.5 4.5 4.5zM15.516 14.016l4.969 4.969-1.5 1.5-4.969-4.969v-0.797l-0.281-0.281c-1.125 0.984-2.625 1.547-4.219 1.547-3.609 0-6.516-2.859-6.516-6.469s2.906-6.516 6.516-6.516 6.469 2.906 6.469 6.516c0 1.594-0.563 3.094-1.547 4.219l0.281 0.281h0.797z"></path>
</symbol>
<symbol id="icon-mail" viewBox="0 0 1024 1024">
<title>mail</title>
<path class="path1" d="M81.613 270.643c24.986 13.466 371.149 199.373 384.051 206.285 12.851 6.912 29.542 10.24 46.336 10.24 16.845 0 33.536-3.328 46.387-10.291 12.902-6.912 359.014-192.819 384-206.285 25.037-13.414 48.691-55.552 2.765-55.552h-866.253c-45.926 0-22.323 42.138 2.714 55.603zM952.986 373.043c-28.416 14.848-377.19 197.171-394.598 206.285s-29.542 10.291-46.387 10.291c-16.794 0-28.928-1.178-46.336-10.291s-366.234-191.488-394.598-206.285c-20.019-10.445-19.866 1.792-19.866 11.213s0 375.552 0 375.552c0 21.504 28.621 49.152 50.79 49.152h820.070c22.221 0 50.739-27.648 50.739-49.101 0 0 0-366.131 0-375.552 0-9.472 0.205-21.709-19.814-11.264z"></path>
</symbol>
<symbol id="icon-twitter" viewBox="0 0 1024 1024">
<title>twitter</title>
<path class="path1" d="M983.040 219.802c-34.714 15.411-71.936 25.754-111.053 30.464 39.936-23.91 70.605-61.798 84.992-106.906-37.325 22.118-78.694 38.246-122.675 46.899-35.277-37.581-85.504-61.030-141.107-61.030-106.752 0-193.28 86.528-193.28 193.229 0 15.155 1.69 29.901 5.018 44.032-160.614-8.038-303.053-84.992-398.336-201.933-16.691 28.518-26.266 61.747-26.266 97.178 0 67.072 34.15 126.208 86.016 160.87-31.693-1.024-61.491-9.677-87.552-24.166 0 0.819 0 1.587 0 2.406 0 93.645 66.662 171.725 155.034 189.542-16.179 4.403-33.28 6.758-50.944 6.758-12.442 0-24.525-1.178-36.352-3.43 24.576 76.8 96 132.659 180.531 134.195-66.15 51.866-149.453 82.739-240.026 82.739-15.616 0-30.976-0.922-46.080-2.714 85.504 54.835 187.085 86.835 296.294 86.835 355.482 0 549.888-294.502 549.888-549.939 0-8.346-0.154-16.691-0.563-24.986 37.786-27.238 70.502-61.286 96.461-100.045z"></path>
</symbol>
<symbol id="icon-facebook" viewBox="0 0 1024 1024">
<title>facebook</title>
<path class="path1" d="M768 211.405h-146.227c-17.306 0-36.608 22.733-36.608 53.197v105.574h182.835v150.528h-182.835v452.096h-172.646v-452.045h-156.518v-150.579h156.518v-88.576c0-127.027 88.166-230.4 209.203-230.4h146.278v160.205z"></path>
</symbol>
<symbol id="icon-share" viewBox="0 0 448 512">
<title>share</title>
<path class="path1" d="M448 127.1C448 181 405 223.1 352 223.1C326.1 223.1 302.6 213.8 285.4 197.1L191.3 244.1C191.8 248 191.1 251.1 191.1 256C191.1 260 191.8 263.1 191.3 267.9L285.4 314.9C302.6 298.2 326.1 288 352 288C405 288 448 330.1 448 384C448 437 405 480 352 480C298.1 480 256 437 256 384C256 379.1 256.2 376 256.7 372.1L162.6 325.1C145.4 341.8 121.9 352 96 352C42.98 352 0 309 0 256C0 202.1 42.98 160 96 160C121.9 160 145.4 170.2 162.6 186.9L256.7 139.9C256.2 135.1 256 132 256 128C256 74.98 298.1 32 352 32C405 32 448 74.98 448 128L448 127.1zM95.1 287.1C113.7 287.1 127.1 273.7 127.1 255.1C127.1 238.3 113.7 223.1 95.1 223.1C78.33 223.1 63.1 238.3 63.1 255.1C63.1 273.7 78.33 287.1 95.1 287.1zM352 95.1C334.3 95.1 320 110.3 320 127.1C320 145.7 334.3 159.1 352 159.1C369.7 159.1 384 145.7 384 127.1C384 110.3 369.7 95.1 352 95.1zM352 416C369.7 416 384 401.7 384 384C384 366.3 369.7 352 352 352C334.3 352 320 366.3 320 384C320 401.7 334.3 416 352 416z"/>
</symbol>
<symbol id="icon-settings" viewBox="0 0 512 512">
<title>settings</title>
<path d="M495.9 166.6C499.2 175.2 496.4 184.9 489.6 191.2L446.3 230.6C447.4 238.9 448 247.4 448 256C448 264.6 447.4 273.1 446.3 281.4L489.6 320.8C496.4 327.1 499.2 336.8 495.9 345.4C491.5 357.3 486.2 368.8 480.2 379.7L475.5 387.8C468.9 398.8 461.5 409.2 453.4 419.1C447.4 426.2 437.7 428.7 428.9 425.9L373.2 408.1C359.8 418.4 344.1 427 329.2 433.6L316.7 490.7C314.7 499.7 307.7 506.1 298.5 508.5C284.7 510.8 270.5 512 255.1 512C241.5 512 227.3 510.8 213.5 508.5C204.3 506.1 197.3 499.7 195.3 490.7L182.8 433.6C167 427 152.2 418.4 138.8 408.1L83.14 425.9C74.3 428.7 64.55 426.2 58.63 419.1C50.52 409.2 43.12 398.8 36.52 387.8L31.84 379.7C25.77 368.8 20.49 357.3 16.06 345.4C12.82 336.8 15.55 327.1 22.41 320.8L65.67 281.4C64.57 273.1 64 264.6 64 256C64 247.4 64.57 238.9 65.67 230.6L22.41 191.2C15.55 184.9 12.82 175.3 16.06 166.6C20.49 154.7 25.78 143.2 31.84 132.3L36.51 124.2C43.12 113.2 50.52 102.8 58.63 92.95C64.55 85.8 74.3 83.32 83.14 86.14L138.8 103.9C152.2 93.56 167 84.96 182.8 78.43L195.3 21.33C197.3 12.25 204.3 5.04 213.5 3.51C227.3 1.201 241.5 0 256 0C270.5 0 284.7 1.201 298.5 3.51C307.7 5.04 314.7 12.25 316.7 21.33L329.2 78.43C344.1 84.96 359.8 93.56 373.2 103.9L428.9 86.14C437.7 83.32 447.4 85.8 453.4 92.95C461.5 102.8 468.9 113.2 475.5 124.2L480.2 132.3C486.2 143.2 491.5 154.7 495.9 166.6V166.6zM256 336C300.2 336 336 300.2 336 255.1C336 211.8 300.2 175.1 256 175.1C211.8 175.1 176 211.8 176 255.1C176 300.2 211.8 336 256 336z"/>
</symbol>
<symbol id="icon-results" viewBox="0 0 448 512">
<title>results</title>
<path d="M384 32C419.3 32 448 60.65 448 96V416C448 451.3 419.3 480 384 480H64C28.65 480 0 451.3 0 416V96C0 60.65 28.65 32 64 32H384zM128 224C110.3 224 96 238.3 96 256V352C96 369.7 110.3 384 128 384C145.7 384 160 369.7 160 352V256C160 238.3 145.7 224 128 224zM192 352C192 369.7 206.3 384 224 384C241.7 384 256 369.7 256 352V160C256 142.3 241.7 128 224 128C206.3 128 192 142.3 192 160V352zM320 288C302.3 288 288 302.3 288 320V352C288 369.7 302.3 384 320 384C337.7 384 352 369.7 352 352V320C352 302.3 337.7 288 320 288z"/>
</symbol>
</defs>
</svg>
