<svg style="position: absolute; width: 0; height: 0;" width="0" height="0" version="1.1" xmlns="http://www.w3.org/2000/svg" xmlns:xlink="http://www.w3.org/1999/xlink">
<defs>
<symbol id="icon-add" viewBox="0 0 1024 1024">
<title>add</title>
<path class="path1" d="M810 554h-256v256h-84v-256h-256v-84h256v-256h84v256h256v84z"></path>
</symbol>
<symbol id="icon-check" viewBox="0 0 1024 1024">
<title>check</title>
<path class="path1" d="M384 690l452-452 60 60-512 512-238-238 60-60z"></path>
</symbol>
<symbol id="icon-chevron-right" viewBox="0 0 1024 1024">
<title>navigate_next</title>
<path class="path1" d="M426 256l256 256-256 256-60-60 196-196-196-196z"></path>
</symbol>
<symbol id="icon-close" viewBox="0 0 1024 1024">
<title>close</title>
<path class="path1" d="M810 274l-238 238 238 238-60 60-238-238-238 238-60-60 238-238-238-238 60-60 238 238 238-238z"></path>
</symbol>
<symbol id="icon-mail" viewBox="0 0 512 512">
<title>mail</title>
<path d="M464 64C490.5 64 512 85.49 512 112C512 127.1 504.9 141.3 492.8 150.4L275.2 313.6C263.8 322.1 248.2 322.1 236.8 313.6L19.2 150.4C7.113 141.3 0 127.1 0 112C0 85.49 21.49 64 48 64H464zM217.6 339.2C240.4 356.3 271.6 356.3 294.4 339.2L512 176V384C512 419.3 483.3 448 448 448H64C28.65 448 0 419.3 0 384V176L217.6 339.2z"/>
</symbol>
<symbol id="icon-twitter" viewBox="0 0 1024 1024">
<title>twitter</title>
<path class="path1" d="M983.040 219.802c-34.714 15.411-71.936 25.754-111.053 30.464 39.936-23.91 70.605-61.798 84.992-106.906-37.325 22.118-78.694 38.246-122.675 46.899-35.277-37.581-85.504-61.030-141.107-61.030-106.752 0-193.28 86.528-193.28 193.229 0 15.155 1.69 29.901 5.018 44.032-160.614-8.038-303.053-84.992-398.336-201.933-16.691 28.518-26.266 61.747-26.266 97.178 0 67.072 34.15 126.208 86.016 160.87-31.693-1.024-61.491-9.677-87.552-24.166 0 0.819 0 1.587 0 2.406 0 93.645 66.662 171.725 155.034 189.542-16.179 4.403-33.28 6.758-50.944 6.758-12.442 0-24.525-1.178-36.352-3.43 24.576 76.8 96 132.659 180.531 134.195-66.15 51.866-149.453 82.739-240.026 82.739-15.616 0-30.976-0.922-46.080-2.714 85.504 54.835 187.085 86.835 296.294 86.835 355.482 0 549.888-294.502 549.888-549.939 0-8.346-0.154-16.691-0.563-24.986 37.786-27.238 70.502-61.286 96.461-100.045z"></path>
</symbol>
<symbol id="icon-facebook" viewBox="0 0 1024 1024">
<title>facebook</title>
<path class="path1" d="M768 211.405h-146.227c-17.306 0-36.608 22.733-36.608 53.197v105.574h182.835v150.528h-182.835v452.096h-172.646v-452.045h-156.518v-150.579h156.518v-88.576c0-127.027 88.166-230.4 209.203-230.4h146.278v160.205z"></path>
</symbol>
</defs>
</svg>
